<mxfile host="app.diagrams.net" modified="2024-05-31T07:36:30.935Z" agent="Mozilla/5.0 (X11; Linux x86_64; rv:125.0) Gecko/20100101 Firefox/125.0" etag="CeZ8kzVEXCdSQIevbmLf" version="24.4.10" type="github">
  <diagram name="Page-1" id="hTidVdQijETApgF5tEx6">
    <mxGraphModel dx="4057" dy="2097" grid="1" gridSize="10" guides="1" tooltips="1" connect="1" arrows="1" fold="1" page="1" pageScale="1" pageWidth="827" pageHeight="1169" math="0" shadow="0">
      <root>
        <mxCell id="0" />
        <mxCell id="1" parent="0" />
        <mxCell id="gJgGUAnCLUu2iJtIGdi1-115" value="&lt;font style=&quot;font-size: 20px;&quot;&gt;add_to_dictionary(int id, marker_dict &amp;amp;md)&lt;/font&gt;" style="rounded=0;whiteSpace=wrap;html=1;fillColor=none;verticalAlign=top;dashed=1;fontSize=20;" vertex="1" parent="1">
          <mxGeometry x="672.2627737226278" y="974.1304347826087" width="1447.7372262773724" height="585.8695652173914" as="geometry" />
        </mxCell>
        <mxCell id="gJgGUAnCLUu2iJtIGdi1-111" value="&lt;font style=&quot;font-size: 20px;&quot;&gt;id_array()&lt;/font&gt;" style="rounded=0;whiteSpace=wrap;html=1;fillColor=none;dashed=1;verticalAlign=top;fontSize=20;" vertex="1" parent="1">
          <mxGeometry x="595.2554744525547" y="170.65217391304347" width="785.4744525547445" height="770" as="geometry" />
        </mxCell>
        <mxCell id="gJgGUAnCLUu2iJtIGdi1-12" value="" style="edgeStyle=orthogonalEdgeStyle;rounded=0;orthogonalLoop=1;jettySize=auto;html=1;fontSize=20;" edge="1" parent="1" source="gJgGUAnCLUu2iJtIGdi1-9" target="gJgGUAnCLUu2iJtIGdi1-11">
          <mxGeometry relative="1" as="geometry" />
        </mxCell>
        <mxCell id="gJgGUAnCLUu2iJtIGdi1-9" value="&lt;font style=&quot;font-size: 20px;&quot;&gt;Start&lt;/font&gt;" style="ellipse;whiteSpace=wrap;html=1;fontSize=20;" vertex="1" parent="1">
          <mxGeometry x="56.2043795620438" y="20" width="184.8175182481752" height="133.91304347826087" as="geometry" />
        </mxCell>
        <mxCell id="gJgGUAnCLUu2iJtIGdi1-14" value="" style="edgeStyle=orthogonalEdgeStyle;rounded=0;orthogonalLoop=1;jettySize=auto;html=1;fontSize=20;" edge="1" parent="1" source="gJgGUAnCLUu2iJtIGdi1-11" target="gJgGUAnCLUu2iJtIGdi1-13">
          <mxGeometry relative="1" as="geometry" />
        </mxCell>
        <mxCell id="gJgGUAnCLUu2iJtIGdi1-11" value="&lt;div style=&quot;font-size: 20px;&quot;&gt;&lt;font style=&quot;font-size: 20px;&quot;&gt;Instantiate pointer to marker_dict object&lt;br style=&quot;font-size: 20px;&quot;&gt;&lt;/font&gt;&lt;/div&gt;" style="whiteSpace=wrap;html=1;fontSize=20;" vertex="1" parent="1">
          <mxGeometry x="56.2043795620438" y="220.86956521739134" width="184.8175182481752" height="100.43478260869567" as="geometry" />
        </mxCell>
        <mxCell id="gJgGUAnCLUu2iJtIGdi1-18" value="" style="edgeStyle=orthogonalEdgeStyle;rounded=0;orthogonalLoop=1;jettySize=auto;html=1;fontSize=20;" edge="1" parent="1" source="gJgGUAnCLUu2iJtIGdi1-13" target="gJgGUAnCLUu2iJtIGdi1-17">
          <mxGeometry relative="1" as="geometry" />
        </mxCell>
        <mxCell id="gJgGUAnCLUu2iJtIGdi1-13" value="&lt;font style=&quot;font-size: 20px;&quot;&gt;Load predefined aruco dictionary from OpenCV library&lt;/font&gt;" style="whiteSpace=wrap;html=1;fontSize=20;" vertex="1" parent="1">
          <mxGeometry x="348.8321167883212" y="220.86956521739134" width="184.8175182481752" height="100.43478260869567" as="geometry" />
        </mxCell>
        <mxCell id="gJgGUAnCLUu2iJtIGdi1-20" value="" style="edgeStyle=orthogonalEdgeStyle;rounded=0;orthogonalLoop=1;jettySize=auto;html=1;fontSize=20;" edge="1" parent="1" source="gJgGUAnCLUu2iJtIGdi1-17" target="gJgGUAnCLUu2iJtIGdi1-19">
          <mxGeometry relative="1" as="geometry" />
        </mxCell>
        <mxCell id="gJgGUAnCLUu2iJtIGdi1-17" value="&lt;div style=&quot;font-size: 20px;&quot;&gt;&lt;font style=&quot;font-size: 20px;&quot;&gt;input&amp;nbsp;&lt;/font&gt;&lt;/div&gt;&lt;div style=&quot;font-size: 20px;&quot;&gt;&lt;font style=&quot;font-size: 20px;&quot;&gt;total_marker_no&lt;/font&gt;&lt;/div&gt;" style="shape=parallelogram;perimeter=parallelogramPerimeter;whiteSpace=wrap;html=1;fixedSize=1;fontSize=20;" vertex="1" parent="1">
          <mxGeometry x="795.4744525547445" y="220.86956521739134" width="184.8175182481752" height="100.43478260869567" as="geometry" />
        </mxCell>
        <mxCell id="gJgGUAnCLUu2iJtIGdi1-27" style="edgeStyle=orthogonalEdgeStyle;rounded=0;orthogonalLoop=1;jettySize=auto;html=1;exitX=0.5;exitY=1;exitDx=0;exitDy=0;fontSize=20;" edge="1" parent="1" source="gJgGUAnCLUu2iJtIGdi1-19" target="gJgGUAnCLUu2iJtIGdi1-21">
          <mxGeometry relative="1" as="geometry" />
        </mxCell>
        <mxCell id="gJgGUAnCLUu2iJtIGdi1-19" value="&lt;font style=&quot;font-size: 20px;&quot;&gt;i = 0&lt;/font&gt;" style="whiteSpace=wrap;html=1;fontSize=20;" vertex="1" parent="1">
          <mxGeometry x="795.4744525547445" y="388.2608695652174" width="184.8175182481752" height="100.43478260869567" as="geometry" />
        </mxCell>
        <mxCell id="gJgGUAnCLUu2iJtIGdi1-29" value="" style="edgeStyle=orthogonalEdgeStyle;rounded=0;orthogonalLoop=1;jettySize=auto;html=1;fontSize=20;" edge="1" parent="1" source="gJgGUAnCLUu2iJtIGdi1-21" target="gJgGUAnCLUu2iJtIGdi1-28">
          <mxGeometry relative="1" as="geometry" />
        </mxCell>
        <mxCell id="gJgGUAnCLUu2iJtIGdi1-30" value="True" style="edgeLabel;html=1;align=center;verticalAlign=middle;resizable=0;points=[];fontSize=20;" vertex="1" connectable="0" parent="gJgGUAnCLUu2iJtIGdi1-29">
          <mxGeometry x="-0.2" relative="1" as="geometry">
            <mxPoint as="offset" />
          </mxGeometry>
        </mxCell>
        <mxCell id="gJgGUAnCLUu2iJtIGdi1-37" value="&lt;font style=&quot;font-size: 20px;&quot;&gt;False&lt;/font&gt;" style="edgeStyle=orthogonalEdgeStyle;rounded=0;orthogonalLoop=1;jettySize=auto;html=1;fontSize=20;" edge="1" parent="1" source="gJgGUAnCLUu2iJtIGdi1-21" target="gJgGUAnCLUu2iJtIGdi1-36">
          <mxGeometry relative="1" as="geometry" />
        </mxCell>
        <mxCell id="gJgGUAnCLUu2iJtIGdi1-21" value="&lt;font style=&quot;font-size: 20px;&quot;&gt;&amp;nbsp;i &amp;lt; total_marker_no&lt;/font&gt;" style="rhombus;whiteSpace=wrap;html=1;fontSize=20;" vertex="1" parent="1">
          <mxGeometry x="788.14" y="564.57" width="199.49" height="183.04" as="geometry" />
        </mxCell>
        <mxCell id="gJgGUAnCLUu2iJtIGdi1-32" value="" style="edgeStyle=orthogonalEdgeStyle;rounded=0;orthogonalLoop=1;jettySize=auto;html=1;fontSize=20;" edge="1" parent="1" source="gJgGUAnCLUu2iJtIGdi1-28" target="gJgGUAnCLUu2iJtIGdi1-31">
          <mxGeometry relative="1" as="geometry" />
        </mxCell>
        <mxCell id="gJgGUAnCLUu2iJtIGdi1-28" value="&lt;font style=&quot;font-size: 20px;&quot;&gt;input marker_id&lt;/font&gt;" style="shape=parallelogram;perimeter=parallelogramPerimeter;whiteSpace=wrap;html=1;fixedSize=1;fontSize=20;" vertex="1" parent="1">
          <mxGeometry x="795.4744525547445" y="806.7391304347826" width="184.8175182481752" height="100.43478260869567" as="geometry" />
        </mxCell>
        <mxCell id="gJgGUAnCLUu2iJtIGdi1-34" value="" style="edgeStyle=orthogonalEdgeStyle;rounded=0;orthogonalLoop=1;jettySize=auto;html=1;fontSize=20;" edge="1" parent="1" source="gJgGUAnCLUu2iJtIGdi1-31" target="gJgGUAnCLUu2iJtIGdi1-33">
          <mxGeometry relative="1" as="geometry" />
        </mxCell>
        <mxCell id="gJgGUAnCLUu2iJtIGdi1-31" value="&lt;font style=&quot;font-size: 20px;&quot;&gt;marker_id appended to id_array&lt;/font&gt;" style="whiteSpace=wrap;html=1;fontSize=20;" vertex="1" parent="1">
          <mxGeometry x="1041.897810218978" y="806.74" width="184.8175182481752" height="100.43478260869567" as="geometry" />
        </mxCell>
        <mxCell id="gJgGUAnCLUu2iJtIGdi1-35" value="" style="edgeStyle=orthogonalEdgeStyle;rounded=0;orthogonalLoop=1;jettySize=auto;html=1;fontSize=20;" edge="1" parent="1" source="gJgGUAnCLUu2iJtIGdi1-33" target="gJgGUAnCLUu2iJtIGdi1-21">
          <mxGeometry relative="1" as="geometry" />
        </mxCell>
        <mxCell id="gJgGUAnCLUu2iJtIGdi1-33" value="&lt;font style=&quot;font-size: 20px;&quot;&gt;i = i + 1&lt;/font&gt;" style="whiteSpace=wrap;html=1;fontSize=20;" vertex="1" parent="1">
          <mxGeometry x="1041.897810218978" y="605.8695652173914" width="184.8175182481752" height="100.43478260869567" as="geometry" />
        </mxCell>
        <mxCell id="gJgGUAnCLUu2iJtIGdi1-41" value="" style="edgeStyle=orthogonalEdgeStyle;rounded=0;orthogonalLoop=1;jettySize=auto;html=1;fontSize=20;" edge="1" parent="1" source="gJgGUAnCLUu2iJtIGdi1-36" target="gJgGUAnCLUu2iJtIGdi1-40">
          <mxGeometry relative="1" as="geometry" />
        </mxCell>
        <mxCell id="gJgGUAnCLUu2iJtIGdi1-36" value="i = 0" style="whiteSpace=wrap;html=1;fontSize=20;" vertex="1" parent="1">
          <mxGeometry x="210.2189781021898" y="605.8695652173914" width="184.8175182481752" height="100.43478260869567" as="geometry" />
        </mxCell>
        <mxCell id="gJgGUAnCLUu2iJtIGdi1-43" value="True" style="edgeStyle=orthogonalEdgeStyle;rounded=0;orthogonalLoop=1;jettySize=auto;html=1;fontSize=20;" edge="1" parent="1" source="gJgGUAnCLUu2iJtIGdi1-40" target="gJgGUAnCLUu2iJtIGdi1-42">
          <mxGeometry relative="1" as="geometry" />
        </mxCell>
        <mxCell id="gJgGUAnCLUu2iJtIGdi1-120" style="edgeStyle=orthogonalEdgeStyle;rounded=0;orthogonalLoop=1;jettySize=auto;html=1;exitX=0;exitY=0.5;exitDx=0;exitDy=0;entryX=0.5;entryY=0;entryDx=0;entryDy=0;fontSize=20;" edge="1" parent="1" source="gJgGUAnCLUu2iJtIGdi1-40" target="gJgGUAnCLUu2iJtIGdi1-119">
          <mxGeometry relative="1" as="geometry" />
        </mxCell>
        <mxCell id="gJgGUAnCLUu2iJtIGdi1-40" value="&lt;font style=&quot;font-size: 20px;&quot;&gt;i &amp;lt; size(id_array)&lt;/font&gt;" style="rhombus;whiteSpace=wrap;html=1;fontSize=20;" vertex="1" parent="1">
          <mxGeometry x="215.51" y="806.74" width="174.23" height="177.39" as="geometry" />
        </mxCell>
        <mxCell id="gJgGUAnCLUu2iJtIGdi1-49" value="" style="edgeStyle=orthogonalEdgeStyle;rounded=0;orthogonalLoop=1;jettySize=auto;html=1;fontSize=20;" edge="1" parent="1" source="gJgGUAnCLUu2iJtIGdi1-42" target="gJgGUAnCLUu2iJtIGdi1-48">
          <mxGeometry relative="1" as="geometry" />
        </mxCell>
        <mxCell id="gJgGUAnCLUu2iJtIGdi1-42" value="&lt;font style=&quot;font-size: 20px;&quot;&gt;id = id_array[i]&lt;/font&gt;" style="whiteSpace=wrap;html=1;fontSize=20;" vertex="1" parent="1">
          <mxGeometry x="210.2189781021898" y="1074.5652173913045" width="184.8175182481752" height="100.43478260869567" as="geometry" />
        </mxCell>
        <mxCell id="gJgGUAnCLUu2iJtIGdi1-59" value="" style="edgeStyle=orthogonalEdgeStyle;rounded=0;orthogonalLoop=1;jettySize=auto;html=1;fontSize=20;" edge="1" parent="1" source="gJgGUAnCLUu2iJtIGdi1-44" target="gJgGUAnCLUu2iJtIGdi1-58">
          <mxGeometry relative="1" as="geometry">
            <Array as="points">
              <mxPoint x="302.62773722627736" y="1476.304347826087" />
            </Array>
          </mxGeometry>
        </mxCell>
        <mxCell id="gJgGUAnCLUu2iJtIGdi1-44" value="&lt;div style=&quot;font-size: 20px;&quot;&gt;&lt;font style=&quot;font-size: 20px;&quot;&gt;Write marker image&lt;/font&gt;&lt;/div&gt;&lt;div style=&quot;font-size: 20px;&quot;&gt;&lt;font style=&quot;font-size: 20px;&quot;&gt;to file&lt;/font&gt;&lt;/div&gt;" style="whiteSpace=wrap;html=1;fontSize=20;" vertex="1" parent="1">
          <mxGeometry x="210.2189781021898" y="1225.2173913043478" width="184.8175182481752" height="100.43478260869567" as="geometry" />
        </mxCell>
        <mxCell id="gJgGUAnCLUu2iJtIGdi1-51" value="" style="edgeStyle=orthogonalEdgeStyle;rounded=0;orthogonalLoop=1;jettySize=auto;html=1;fontSize=20;" edge="1" parent="1" source="gJgGUAnCLUu2iJtIGdi1-46" target="gJgGUAnCLUu2iJtIGdi1-44">
          <mxGeometry relative="1" as="geometry" />
        </mxCell>
        <mxCell id="gJgGUAnCLUu2iJtIGdi1-46" value="&lt;div style=&quot;font-size: 20px;&quot;&gt;&lt;font style=&quot;font-size: 20px;&quot;&gt;markerfilename = &quot;/images/markerid&quot; + id&lt;br style=&quot;font-size: 20px;&quot;&gt;&lt;/font&gt;&lt;/div&gt;" style="whiteSpace=wrap;html=1;fontSize=20;" vertex="1" parent="1">
          <mxGeometry x="456.64233576642334" y="1225.2173913043478" width="184.8175182481752" height="100.43478260869567" as="geometry" />
        </mxCell>
        <mxCell id="gJgGUAnCLUu2iJtIGdi1-57" value="" style="edgeStyle=orthogonalEdgeStyle;rounded=0;orthogonalLoop=1;jettySize=auto;html=1;fontSize=20;" edge="1" parent="1" source="gJgGUAnCLUu2iJtIGdi1-48" target="gJgGUAnCLUu2iJtIGdi1-46">
          <mxGeometry relative="1" as="geometry" />
        </mxCell>
        <mxCell id="gJgGUAnCLUu2iJtIGdi1-48" value="&lt;div style=&quot;font-size: 20px;&quot;&gt;cv::Mat current = &lt;div style=&quot;font-size: 20px;&quot;&gt;generateImageMarker()&lt;/div&gt;&lt;/div&gt;" style="whiteSpace=wrap;html=1;fontSize=20;" vertex="1" parent="1">
          <mxGeometry x="443.32" y="1074.57" width="211.46" height="100.43" as="geometry" />
        </mxCell>
        <mxCell id="gJgGUAnCLUu2iJtIGdi1-54" value="" style="edgeStyle=orthogonalEdgeStyle;rounded=0;orthogonalLoop=1;jettySize=auto;html=1;fontSize=20;" edge="1" parent="1" source="gJgGUAnCLUu2iJtIGdi1-52" target="gJgGUAnCLUu2iJtIGdi1-40">
          <mxGeometry relative="1" as="geometry" />
        </mxCell>
        <mxCell id="gJgGUAnCLUu2iJtIGdi1-52" value="&lt;font style=&quot;font-size: 20px;&quot;&gt;i = i + 1&lt;/font&gt;" style="whiteSpace=wrap;html=1;fontSize=20;" vertex="1" parent="1">
          <mxGeometry x="456.64233576642334" y="957.3913043478262" width="184.8175182481752" height="100.43478260869567" as="geometry" />
        </mxCell>
        <mxCell id="gJgGUAnCLUu2iJtIGdi1-61" value="" style="edgeStyle=orthogonalEdgeStyle;rounded=0;orthogonalLoop=1;jettySize=auto;html=1;fontSize=20;" edge="1" parent="1" source="gJgGUAnCLUu2iJtIGdi1-58" target="gJgGUAnCLUu2iJtIGdi1-60">
          <mxGeometry relative="1" as="geometry" />
        </mxCell>
        <mxCell id="gJgGUAnCLUu2iJtIGdi1-58" value="&lt;div style=&quot;font-size: 20px;&quot;&gt;&lt;font style=&quot;font-size: 20px;&quot;&gt;input&lt;/font&gt;&lt;/div&gt;&lt;div style=&quot;font-size: 20px;&quot;&gt;&lt;font style=&quot;font-size: 20px;&quot;&gt;state_selection&lt;br style=&quot;font-size: 20px;&quot;&gt;&lt;/font&gt;&lt;/div&gt;" style="shape=parallelogram;perimeter=parallelogramPerimeter;whiteSpace=wrap;html=1;fixedSize=1;fontSize=20;" vertex="1" parent="1">
          <mxGeometry x="687.6642335766423" y="1426.0869565217392" width="184.8175182481752" height="100.43478260869567" as="geometry" />
        </mxCell>
        <mxCell id="gJgGUAnCLUu2iJtIGdi1-109" style="edgeStyle=orthogonalEdgeStyle;rounded=0;orthogonalLoop=1;jettySize=auto;html=1;exitX=0.5;exitY=0;exitDx=0;exitDy=0;exitPerimeter=0;entryX=1;entryY=0.5;entryDx=0;entryDy=0;fontSize=20;" edge="1" parent="1" source="gJgGUAnCLUu2iJtIGdi1-83" target="gJgGUAnCLUu2iJtIGdi1-104">
          <mxGeometry relative="1" as="geometry" />
        </mxCell>
        <mxCell id="gJgGUAnCLUu2iJtIGdi1-108" style="edgeStyle=orthogonalEdgeStyle;rounded=0;orthogonalLoop=1;jettySize=auto;html=1;exitX=0;exitY=0.5;exitDx=0;exitDy=0;fontSize=20;" edge="1" parent="1" source="gJgGUAnCLUu2iJtIGdi1-104" target="gJgGUAnCLUu2iJtIGdi1-52">
          <mxGeometry relative="1" as="geometry" />
        </mxCell>
        <mxCell id="gJgGUAnCLUu2iJtIGdi1-104" value="&lt;div style=&quot;font-size: 20px;&quot;&gt;&lt;font style=&quot;font-size: 20px;&quot;&gt;md-&amp;gt;add_marker({id, State})&lt;br style=&quot;font-size: 20px;&quot;&gt;&lt;/font&gt;&lt;/div&gt;" style="whiteSpace=wrap;html=1;verticalAlign=middle;fontSize=20;" vertex="1" parent="1">
          <mxGeometry x="1149.7080291970804" y="1041.0869565217392" width="184.8175182481752" height="100.43478260869567" as="geometry" />
        </mxCell>
        <mxCell id="gJgGUAnCLUu2iJtIGdi1-113" value="" style="group;fontSize=20;" vertex="1" connectable="0" parent="1">
          <mxGeometry x="887.8832116788321" y="1158.2608695652175" width="1185.9124087591242" height="385" as="geometry" />
        </mxCell>
        <mxCell id="gJgGUAnCLUu2iJtIGdi1-63" value="False" style="edgeStyle=orthogonalEdgeStyle;rounded=0;orthogonalLoop=1;jettySize=auto;html=1;fontSize=20;" edge="1" parent="gJgGUAnCLUu2iJtIGdi1-113" source="gJgGUAnCLUu2iJtIGdi1-60" target="gJgGUAnCLUu2iJtIGdi1-62">
          <mxGeometry relative="1" as="geometry" />
        </mxCell>
        <mxCell id="gJgGUAnCLUu2iJtIGdi1-71" value="" style="edgeStyle=orthogonalEdgeStyle;rounded=0;orthogonalLoop=1;jettySize=auto;html=1;fontSize=20;" edge="1" parent="gJgGUAnCLUu2iJtIGdi1-113" source="gJgGUAnCLUu2iJtIGdi1-60" target="gJgGUAnCLUu2iJtIGdi1-70">
          <mxGeometry relative="1" as="geometry" />
        </mxCell>
        <mxCell id="gJgGUAnCLUu2iJtIGdi1-122" value="True" style="edgeLabel;html=1;align=center;verticalAlign=middle;resizable=0;points=[];fontSize=20;" vertex="1" connectable="0" parent="gJgGUAnCLUu2iJtIGdi1-71">
          <mxGeometry x="-0.1648" y="1" relative="1" as="geometry">
            <mxPoint as="offset" />
          </mxGeometry>
        </mxCell>
        <mxCell id="gJgGUAnCLUu2iJtIGdi1-60" value="&lt;div style=&quot;font-size: 20px;&quot;&gt;state_selection&lt;/div&gt;&lt;div style=&quot;font-size: 20px;&quot;&gt;=0&lt;br style=&quot;font-size: 20px;&quot;&gt;&lt;/div&gt;" style="rhombus;whiteSpace=wrap;html=1;fontSize=20;" vertex="1" parent="gJgGUAnCLUu2iJtIGdi1-113">
          <mxGeometry x="30.802919708029197" y="251.08695652173915" width="123.21167883211679" height="133.91304347826087" as="geometry" />
        </mxCell>
        <mxCell id="gJgGUAnCLUu2iJtIGdi1-65" value="False" style="edgeStyle=orthogonalEdgeStyle;rounded=0;orthogonalLoop=1;jettySize=auto;html=1;fontSize=20;" edge="1" parent="gJgGUAnCLUu2iJtIGdi1-113" source="gJgGUAnCLUu2iJtIGdi1-62" target="gJgGUAnCLUu2iJtIGdi1-64">
          <mxGeometry relative="1" as="geometry" />
        </mxCell>
        <mxCell id="gJgGUAnCLUu2iJtIGdi1-73" value="&lt;div style=&quot;font-size: 20px;&quot;&gt;True&lt;/div&gt;" style="edgeStyle=orthogonalEdgeStyle;rounded=0;orthogonalLoop=1;jettySize=auto;html=1;fontSize=20;" edge="1" parent="gJgGUAnCLUu2iJtIGdi1-113" source="gJgGUAnCLUu2iJtIGdi1-62" target="gJgGUAnCLUu2iJtIGdi1-72">
          <mxGeometry relative="1" as="geometry" />
        </mxCell>
        <mxCell id="gJgGUAnCLUu2iJtIGdi1-62" value="&lt;div style=&quot;font-size: 20px;&quot;&gt;state_selection&lt;/div&gt;&lt;div style=&quot;font-size: 20px;&quot;&gt;=1&lt;br style=&quot;font-size: 20px;&quot;&gt;&lt;/div&gt;" style="rhombus;whiteSpace=wrap;html=1;fontSize=20;" vertex="1" parent="gJgGUAnCLUu2iJtIGdi1-113">
          <mxGeometry x="231.021897810219" y="251.08695652173915" width="123.21167883211679" height="133.91304347826087" as="geometry" />
        </mxCell>
        <mxCell id="gJgGUAnCLUu2iJtIGdi1-67" value="False" style="edgeStyle=orthogonalEdgeStyle;rounded=0;orthogonalLoop=1;jettySize=auto;html=1;fontSize=20;" edge="1" parent="gJgGUAnCLUu2iJtIGdi1-113" source="gJgGUAnCLUu2iJtIGdi1-64" target="gJgGUAnCLUu2iJtIGdi1-66">
          <mxGeometry relative="1" as="geometry" />
        </mxCell>
        <mxCell id="gJgGUAnCLUu2iJtIGdi1-75" value="&lt;div style=&quot;font-size: 20px;&quot;&gt;True&lt;/div&gt;" style="edgeStyle=orthogonalEdgeStyle;rounded=0;orthogonalLoop=1;jettySize=auto;html=1;fontSize=20;" edge="1" parent="gJgGUAnCLUu2iJtIGdi1-113" source="gJgGUAnCLUu2iJtIGdi1-64" target="gJgGUAnCLUu2iJtIGdi1-74">
          <mxGeometry relative="1" as="geometry" />
        </mxCell>
        <mxCell id="gJgGUAnCLUu2iJtIGdi1-64" value="&lt;div style=&quot;font-size: 20px;&quot;&gt;state_selection&lt;/div&gt;&lt;div style=&quot;font-size: 20px;&quot;&gt;=2&lt;br style=&quot;font-size: 20px;&quot;&gt;&lt;/div&gt;" style="rhombus;whiteSpace=wrap;html=1;fontSize=20;" vertex="1" parent="gJgGUAnCLUu2iJtIGdi1-113">
          <mxGeometry x="431.24087591240874" y="251.08695652173915" width="123.21167883211679" height="133.91304347826087" as="geometry" />
        </mxCell>
        <mxCell id="gJgGUAnCLUu2iJtIGdi1-69" value="False" style="edgeStyle=orthogonalEdgeStyle;rounded=0;orthogonalLoop=1;jettySize=auto;html=1;fontSize=20;" edge="1" parent="gJgGUAnCLUu2iJtIGdi1-113" source="gJgGUAnCLUu2iJtIGdi1-66" target="gJgGUAnCLUu2iJtIGdi1-68">
          <mxGeometry relative="1" as="geometry" />
        </mxCell>
        <mxCell id="gJgGUAnCLUu2iJtIGdi1-77" value="True" style="edgeStyle=orthogonalEdgeStyle;rounded=0;orthogonalLoop=1;jettySize=auto;html=1;fontSize=20;" edge="1" parent="gJgGUAnCLUu2iJtIGdi1-113" source="gJgGUAnCLUu2iJtIGdi1-66" target="gJgGUAnCLUu2iJtIGdi1-76">
          <mxGeometry relative="1" as="geometry" />
        </mxCell>
        <mxCell id="gJgGUAnCLUu2iJtIGdi1-66" value="&lt;div style=&quot;font-size: 20px;&quot;&gt;state_selection&lt;/div&gt;&lt;div style=&quot;font-size: 20px;&quot;&gt;=3&lt;br style=&quot;font-size: 20px;&quot;&gt;&lt;/div&gt;" style="rhombus;whiteSpace=wrap;html=1;fontSize=20;" vertex="1" parent="gJgGUAnCLUu2iJtIGdi1-113">
          <mxGeometry x="631.4598540145986" y="251.08695652173915" width="123.21167883211679" height="133.91304347826087" as="geometry" />
        </mxCell>
        <mxCell id="gJgGUAnCLUu2iJtIGdi1-79" value="True" style="edgeStyle=orthogonalEdgeStyle;rounded=0;orthogonalLoop=1;jettySize=auto;html=1;fontSize=20;" edge="1" parent="gJgGUAnCLUu2iJtIGdi1-113" source="gJgGUAnCLUu2iJtIGdi1-68" target="gJgGUAnCLUu2iJtIGdi1-78">
          <mxGeometry relative="1" as="geometry" />
        </mxCell>
        <mxCell id="gJgGUAnCLUu2iJtIGdi1-81" value="" style="edgeStyle=orthogonalEdgeStyle;rounded=0;orthogonalLoop=1;jettySize=auto;html=1;fontSize=20;" edge="1" parent="gJgGUAnCLUu2iJtIGdi1-113" source="gJgGUAnCLUu2iJtIGdi1-68" target="gJgGUAnCLUu2iJtIGdi1-80">
          <mxGeometry relative="1" as="geometry" />
        </mxCell>
        <mxCell id="gJgGUAnCLUu2iJtIGdi1-82" value="False" style="edgeLabel;html=1;align=center;verticalAlign=middle;resizable=0;points=[];fontSize=20;" vertex="1" connectable="0" parent="gJgGUAnCLUu2iJtIGdi1-81">
          <mxGeometry x="-0.3529" relative="1" as="geometry">
            <mxPoint as="offset" />
          </mxGeometry>
        </mxCell>
        <mxCell id="gJgGUAnCLUu2iJtIGdi1-68" value="&lt;div style=&quot;font-size: 20px;&quot;&gt;state_selection&lt;/div&gt;&lt;div style=&quot;font-size: 20px;&quot;&gt;=4&lt;br style=&quot;font-size: 20px;&quot;&gt;&lt;/div&gt;" style="rhombus;whiteSpace=wrap;html=1;fontSize=20;" vertex="1" parent="gJgGUAnCLUu2iJtIGdi1-113">
          <mxGeometry x="831.6788321167884" y="251.08695652173915" width="123.21167883211679" height="133.91304347826087" as="geometry" />
        </mxCell>
        <mxCell id="gJgGUAnCLUu2iJtIGdi1-70" value="&lt;div style=&quot;font-size: 20px;&quot;&gt;State = Stop&lt;br style=&quot;font-size: 20px;&quot;&gt;&lt;/div&gt;&lt;div style=&quot;font-size: 20px;&quot;&gt;Break;&lt;br style=&quot;font-size: 20px;&quot;&gt;&lt;/div&gt;" style="whiteSpace=wrap;html=1;fontSize=20;" vertex="1" parent="gJgGUAnCLUu2iJtIGdi1-113">
          <mxGeometry y="117.17391304347828" width="184.8175182481752" height="100.43478260869567" as="geometry" />
        </mxCell>
        <mxCell id="gJgGUAnCLUu2iJtIGdi1-93" style="edgeStyle=orthogonalEdgeStyle;rounded=0;orthogonalLoop=1;jettySize=auto;html=1;exitX=0.5;exitY=0;exitDx=0;exitDy=0;endArrow=none;endFill=0;fontSize=20;" edge="1" parent="gJgGUAnCLUu2iJtIGdi1-113" source="gJgGUAnCLUu2iJtIGdi1-72">
          <mxGeometry relative="1" as="geometry">
            <mxPoint x="292.62773722627736" y="16.73913043478261" as="targetPoint" />
          </mxGeometry>
        </mxCell>
        <mxCell id="gJgGUAnCLUu2iJtIGdi1-72" value="&lt;div style=&quot;font-size: 20px;&quot;&gt;State = Forward&lt;br style=&quot;font-size: 20px;&quot;&gt;&lt;/div&gt;&lt;div style=&quot;font-size: 20px;&quot;&gt;Break;&lt;br style=&quot;font-size: 20px;&quot;&gt;&lt;/div&gt;" style="whiteSpace=wrap;html=1;fontSize=20;" vertex="1" parent="gJgGUAnCLUu2iJtIGdi1-113">
          <mxGeometry x="200.2189781021898" y="117.17391304347828" width="184.8175182481752" height="100.43478260869567" as="geometry" />
        </mxCell>
        <mxCell id="gJgGUAnCLUu2iJtIGdi1-95" style="edgeStyle=orthogonalEdgeStyle;rounded=0;orthogonalLoop=1;jettySize=auto;html=1;exitX=0.5;exitY=0;exitDx=0;exitDy=0;endArrow=none;endFill=0;fontSize=20;" edge="1" parent="gJgGUAnCLUu2iJtIGdi1-113" source="gJgGUAnCLUu2iJtIGdi1-74">
          <mxGeometry relative="1" as="geometry">
            <mxPoint x="492.84671532846716" y="16.73913043478261" as="targetPoint" />
          </mxGeometry>
        </mxCell>
        <mxCell id="gJgGUAnCLUu2iJtIGdi1-74" value="&lt;div style=&quot;font-size: 20px;&quot;&gt;State = Backward&lt;/div&gt;&lt;div style=&quot;font-size: 20px;&quot;&gt;Break;&lt;br style=&quot;font-size: 20px;&quot;&gt;&lt;/div&gt;" style="whiteSpace=wrap;html=1;fontSize=20;" vertex="1" parent="gJgGUAnCLUu2iJtIGdi1-113">
          <mxGeometry x="400.4379562043796" y="117.17391304347828" width="184.8175182481752" height="100.43478260869567" as="geometry" />
        </mxCell>
        <mxCell id="gJgGUAnCLUu2iJtIGdi1-96" style="edgeStyle=orthogonalEdgeStyle;rounded=0;orthogonalLoop=1;jettySize=auto;html=1;exitX=0.5;exitY=0;exitDx=0;exitDy=0;endArrow=none;endFill=0;fontSize=20;" edge="1" parent="gJgGUAnCLUu2iJtIGdi1-113" source="gJgGUAnCLUu2iJtIGdi1-76">
          <mxGeometry relative="1" as="geometry">
            <mxPoint x="693.0656934306569" y="16.73913043478261" as="targetPoint" />
          </mxGeometry>
        </mxCell>
        <mxCell id="gJgGUAnCLUu2iJtIGdi1-76" value="&lt;div style=&quot;font-size: 20px;&quot;&gt;State = Turn Left&lt;/div&gt;&lt;div style=&quot;font-size: 20px;&quot;&gt;Break;&lt;br style=&quot;font-size: 20px;&quot;&gt;&lt;/div&gt;" style="whiteSpace=wrap;html=1;fontSize=20;" vertex="1" parent="gJgGUAnCLUu2iJtIGdi1-113">
          <mxGeometry x="600.6569343065694" y="117.17391304347828" width="184.8175182481752" height="100.43478260869567" as="geometry" />
        </mxCell>
        <mxCell id="gJgGUAnCLUu2iJtIGdi1-101" style="edgeStyle=orthogonalEdgeStyle;rounded=0;orthogonalLoop=1;jettySize=auto;html=1;exitX=0.5;exitY=0;exitDx=0;exitDy=0;endArrow=none;endFill=0;fontSize=20;" edge="1" parent="gJgGUAnCLUu2iJtIGdi1-113" source="gJgGUAnCLUu2iJtIGdi1-78">
          <mxGeometry relative="1" as="geometry">
            <mxPoint x="893.2846715328467" y="16.73913043478261" as="targetPoint" />
          </mxGeometry>
        </mxCell>
        <mxCell id="gJgGUAnCLUu2iJtIGdi1-78" value="&lt;div style=&quot;font-size: 20px;&quot;&gt;State = Turn Right&lt;/div&gt;&lt;div style=&quot;font-size: 20px;&quot;&gt;Break;&lt;br style=&quot;font-size: 20px;&quot;&gt;&lt;/div&gt;" style="whiteSpace=wrap;html=1;fontSize=20;" vertex="1" parent="gJgGUAnCLUu2iJtIGdi1-113">
          <mxGeometry x="800.8759124087592" y="117.17391304347828" width="184.8175182481752" height="100.43478260869567" as="geometry" />
        </mxCell>
        <mxCell id="gJgGUAnCLUu2iJtIGdi1-80" value="&lt;div style=&quot;font-size: 20px;&quot;&gt;State = Stop&lt;/div&gt;&lt;div style=&quot;font-size: 20px;&quot;&gt;Break;&lt;br style=&quot;font-size: 20px;&quot;&gt;&lt;/div&gt;" style="whiteSpace=wrap;html=1;fontSize=20;" vertex="1" parent="gJgGUAnCLUu2iJtIGdi1-113">
          <mxGeometry x="1001.094890510949" y="117.17391304347828" width="184.8175182481752" height="100.43478260869567" as="geometry" />
        </mxCell>
        <mxCell id="gJgGUAnCLUu2iJtIGdi1-83" value="" style="verticalLabelPosition=bottom;verticalAlign=top;html=1;shape=mxgraph.flowchart.on-page_reference;fontSize=20;" vertex="1" parent="gJgGUAnCLUu2iJtIGdi1-113">
          <mxGeometry x="1078.102189781022" width="30.802919708029197" height="33.47826086956522" as="geometry" />
        </mxCell>
        <mxCell id="gJgGUAnCLUu2iJtIGdi1-100" style="edgeStyle=orthogonalEdgeStyle;rounded=0;orthogonalLoop=1;jettySize=auto;html=1;exitX=0.5;exitY=0;exitDx=0;exitDy=0;entryX=0;entryY=0.5;entryDx=0;entryDy=0;entryPerimeter=0;fontSize=20;" edge="1" parent="gJgGUAnCLUu2iJtIGdi1-113" source="gJgGUAnCLUu2iJtIGdi1-70" target="gJgGUAnCLUu2iJtIGdi1-83">
          <mxGeometry relative="1" as="geometry" />
        </mxCell>
        <mxCell id="gJgGUAnCLUu2iJtIGdi1-103" style="edgeStyle=orthogonalEdgeStyle;rounded=0;orthogonalLoop=1;jettySize=auto;html=1;exitX=0.5;exitY=0;exitDx=0;exitDy=0;entryX=0.5;entryY=1;entryDx=0;entryDy=0;entryPerimeter=0;fontSize=20;" edge="1" parent="gJgGUAnCLUu2iJtIGdi1-113" source="gJgGUAnCLUu2iJtIGdi1-80" target="gJgGUAnCLUu2iJtIGdi1-83">
          <mxGeometry relative="1" as="geometry" />
        </mxCell>
        <mxCell id="gJgGUAnCLUu2iJtIGdi1-119" value="&lt;font style=&quot;font-size: 20px;&quot;&gt;Stop&lt;/font&gt;" style="ellipse;whiteSpace=wrap;html=1;fontSize=20;" vertex="1" parent="1">
          <mxGeometry x="10" y="1074.5652173913045" width="184.8175182481752" height="133.91304347826087" as="geometry" />
        </mxCell>
      </root>
    </mxGraphModel>
  </diagram>
</mxfile>
